<svg data-v-7d32def8="" version="1.0" xmlns="http://www.w3.org/2000/svg" preserveAspectRatio="xMidYMid meet" color-interpolation-filters="sRGB" xmlns:xlink="http://www.w3.org/1999/xlink" viewBox="0 0 370 260" width="100%" height="100%"><rect x="0" y="0" width="100%" height="100%" fill="transparent" rx="6" ry="6"></rect><rect x="0" y="0" width="100%" height="100%" fill="url(#watermark)" rx="6" ry="6" fill-opacity=".03"></rect><filter id="colorMatrixDefault"><feColorMatrix in="SourceGraphic" type="matrix" values=" 1 0 0 0 0 0 1 0 0 0 0 0 1 0 0 0 0 0 1 0"></feColorMatrix></filter><filter id="colorMatrixWhite"><feColorMatrix in="SourceGraphic" type="matrix" values="0 0 0 0 0.99609375  0 0 0 0 0.99609375  0 0 0 0 0.99609375  0 0 0 1 0"></feColorMatrix></filter><filter id="colorMatrixRed"><feColorMatrix in="SourceGraphic" type="matrix" values="0 0 0 0 0.765625  0 0 0 0 0.109375  0 0 0 0 0.09765625  0 0 0 1 0"></feColorMatrix></filter><filter id="colorMatrixGold"><feColorMatrix in="SourceGraphic" type="matrix" values="0 0 0 0 0.734375  0 0 0 0 0.609375  0 0 0 0 0.375  0 0 0 1 0"></feColorMatrix></filter><filter id="1"><feColorMatrix in="SourceGraphic" type="matrix" values=""></feColorMatrix></filter><filter id="2"><feColorMatrix in="SourceGraphic" type="matrix" values=""></feColorMatrix></filter><filter id="3"><feColorMatrix in="SourceGraphic" type="matrix" values=""></feColorMatrix></filter><defs><clipPath id="textClip"><rect x="0" y="40" width="200" height="30"></rect><rect x="0" y="80" width="200" height="30"></rect><rect x="0" y="90" width="200" height="90"></rect></clipPath><filter id="logoIconColor" filterUnits="userSpaceOnUse" x="0" y="0" width="200" height="120"></filter><filter id="logoIconBackgroundColor" filterUnits="userSpaceOnUse" x="0" y="0" width="200" height="120"></filter></defs><g transform="translate(0,0)" class="logo-group"><g transform="translate(129.43509952340904,68.18000030517578)" class="logo-icon"><svg version="1.0" xmlns="http://www.w3.org/2000/svg" preserveAspectRatio="xMidYMid meet" color-interpolation-filters="sRGB" xmlns:xlink="http://www.w3.org/1999/xlink" width="111.12980095318194" height="80"><svg xmlns="http://www.w3.org/2000/svg" viewBox="0 0 99.1 71.34"><title>资源 110</title><g id="b4ea3b9d-5275-4cca-8f9b-4af5a550fe54" data-name="图层 2"><g id="b6bc812b-a9d1-4f89-baf9-9932f2673838" data-name="图层 1"><path d="M69.56,68.54c2.33-1.18,4.74-2.16,6.94-3.43,11.81-7.19,12.41-20.66,1.31-28.91a59.25,59.25,0,0,0-7.32-5c-4.91-2.45-7.37-12.53-3.9-17.1C76,16.93,84.67,21,91.7,28c4.78,4.79,7.92,10.46,7.32,17.66-.55,5.88-3.89,10.2-8.12,13.89C86.24,63.63,76.08,67.82,69.56,68.54Z" fill="#22ac38"></path><path d="M29.34,12c-3.05,1.74-6,3-8.6,4.87-9.4,6.69-10,18.16-1.48,25.91a55.75,55.75,0,0,0,9,6.52c4.1,2.42,7.24,9.74,5.2,15.24-.25.72-1.65,1.74-2.2,1.53C20.53,62.66,10.58,57.79,4,48.26c-7.2-10.33-4.45-21.42,6.77-28.95C16.38,15.54,22.61,13.51,29.34,12Z" fill="#0064d2"></path><path d="M49.91,71.34c-.72-3.22-2.83-5.46-4.74-7.92C42.21,59.61,39,56,36.24,52a24.28,24.28,0,0,1-4.66-14.65,24.56,24.56,0,0,1,2.2-9.61c.43,2.08.68,4.32,1.32,6.4a30.62,30.62,0,0,0,5.54,10.16c2.41,3.09,4.74,6.09,7,9.14A18.63,18.63,0,0,1,51.23,61a14.64,14.64,0,0,1-.72,8.8l-.3.81A3.72,3.72,0,0,0,49.91,71.34Z" fill="#22ac38"></path><path d="M54.18,39.23A7.51,7.51,0,0,1,50.4,41.1a8.7,8.7,0,0,0-1.52.47,3.64,3.64,0,0,0-2.16,2.11,4,4,0,0,0,.16,2.39c2,2.57,4,5.19,5.83,7.91a11.46,11.46,0,0,1,2.07,7.37c-.08.76-.25,1.56-.38,2.28l.26.13c.76-1.31,1.48-2.54,2.15-3.9,3-6.09,3.14-12.1-.67-17.9C55.51,41,54.85,40.13,54.18,39.23Z" fill="#22ac38"></path><path d="M64.35,32.94a31.53,31.53,0,0,0-4.87-9.49c-2.79-3.68-5.67-7.32-8.38-11-1.86-2.54-3.51-5.25-3.94-8.39a21.18,21.18,0,0,1,0-4.06c-.21.13-.25.13-.25.17C43,5.8,39.58,11.64,38.06,18.33a24.42,24.42,0,0,0,.85,15.07,36.32,36.32,0,0,0,4.46,8,8,8,0,0,1,3.83-3.43,12.54,12.54,0,0,1,2.22-.72A3.62,3.62,0,0,0,51.73,36c-.66-.87-1.31-1.74-1.94-2.62A19.69,19.69,0,0,1,46,25.49,9.64,9.64,0,0,1,46,21c.13.08.25.08.25.12s.13.3.17.43a15.77,15.77,0,0,0,3,6c1.9,2.37,4,4.61,6,6.9A27,27,0,0,1,60.71,43a27.76,27.76,0,0,1,1.48,8.68c.13-.17.17-.38.38-.55a68.28,68.28,0,0,0,2.29-6.77A21.33,21.33,0,0,0,64.35,32.94Z" fill="#22ac38"></path></g></g></svg></svg></g><g transform="translate(97.0250015258789,158.18000030517578)" class="logo-text"><path d="M19.80 4.05L19.80 6.96L24.39 6.96L24.39 6.45L26.76 6.45L26.76 21.36Q26.76 22.50 25.98 23.28L25.98 23.28Q25.20 24.06 24.06 24.06L24.06 24.06L3.24 24.06L3.24 6.96L10.17 6.96L10.17 4.05L1.83 4.05L1.83 1.68L28.17 1.68L28.17 4.05L19.80 4.05ZM12.54 4.05L12.54 6.96L17.46 6.96L17.46 4.05L12.54 4.05ZM24.30 21.63L24.30 21.63Q24.42 21.51 24.42 21.36L24.42 21.36L24.42 17.91L17.46 17.91L17.46 9.33L12.54 9.33L12.54 10.05Q12.54 11.25 12.16 12.36Q11.79 13.47 11.21 14.41Q10.62 15.36 9.95 16.13Q9.27 16.89 8.67 17.45Q8.07 18 7.67 18.31Q7.26 18.63 7.20 18.66L7.20 18.66L5.85 16.71Q5.85 16.71 6.18 16.45Q6.51 16.20 6.99 15.77Q7.47 15.33 8.03 14.71Q8.58 14.10 9.06 13.36Q9.54 12.63 9.86 11.79Q10.17 10.95 10.17 10.05L10.17 10.05L10.17 9.33L5.61 9.33L5.61 21.72L24.06 21.72Q24.21 21.72 24.30 21.63ZM24.39 9.33L19.80 9.33L19.80 15.57L24.39 15.57L24.39 9.33ZM46.71 3.72L58.17 3.72L58.17 6.09L31.92 6.09L31.92 3.72L43.89 3.72L42.81 2.13L44.79 0.84L46.71 3.72ZM37.77 6.87L39.72 8.19Q39.69 8.25 39.30 8.79Q38.91 9.33 38.22 10.17Q37.53 11.01 36.57 12.06Q35.61 13.11 34.44 14.13L34.44 14.13L32.88 12.39Q33.96 11.43 34.86 10.44Q35.76 9.45 36.41 8.67Q37.05 7.89 37.41 7.38Q37.77 6.87 37.77 6.87L37.77 6.87ZM57.12 12.39L55.35 13.92L50.46 8.19L52.26 6.66L57.12 12.39ZM50.97 10.14L52.59 11.85Q52.47 12 51.15 13.17Q49.83 14.34 47.58 16.05L47.58 16.05L57.27 22.38L55.98 24.36L45.54 17.55Q43.02 19.35 39.93 21.16Q36.84 22.98 33.39 24.36L33.39 24.36L32.52 22.17Q35.55 20.94 38.31 19.36Q41.07 17.79 43.41 16.17L43.41 16.17L37.83 12.54L39.12 10.56L45.45 14.70Q46.71 13.77 47.73 12.95Q48.75 12.12 49.47 11.50Q50.19 10.89 50.58 10.53Q50.97 10.17 50.97 10.14L50.97 10.14ZM87.84 22.35L86.82 24.48L79.56 20.97Q77.97 21.78 76.47 22.39Q74.97 23.01 73.77 23.43Q72.57 23.85 71.81 24.06Q71.04 24.27 70.95 24.30L70.95 24.30L70.38 22.05Q70.41 22.05 70.95 21.88Q71.49 21.72 72.38 21.43Q73.26 21.15 74.43 20.71Q75.60 20.28 76.89 19.68L76.89 19.68L72.18 17.40L73.20 15.27L79.53 18.33Q80.79 17.61 81.93 16.77Q83.07 15.93 84.03 14.94L84.03 14.94L84.03 13.89L72.42 13.89L72.42 11.55L84.03 11.55L84.03 11.10L86.37 11.10L86.37 15.81L86.07 16.14Q85.20 17.10 84.18 17.95Q83.16 18.81 82.02 19.53L82.02 19.53L87.84 22.35ZM88.23 7.89L88.23 10.26L83.49 10.26L83.49 4.11L75.12 4.11L75.12 4.80Q75.12 5.61 74.88 6.34Q74.64 7.08 74.27 7.72Q73.89 8.37 73.47 8.91Q73.05 9.45 72.67 9.84Q72.30 10.23 72.03 10.46Q71.76 10.68 71.73 10.71L71.73 10.71L70.98 9.78L70.26 8.85Q70.53 8.64 70.95 8.22Q71.37 7.80 71.78 7.26Q72.18 6.72 72.47 6.07Q72.75 5.43 72.75 4.80L72.75 4.80L72.75 1.74L83.49 1.74L83.49 1.26L85.86 1.26L85.86 7.89L88.23 7.89ZM62.19 21.99L65.07 21.99Q65.40 21.99 65.40 21.66L65.40 21.66L65.40 17.85L62.37 19.08L61.50 16.89L65.40 15.30L65.40 6.57L62.19 6.57L62.19 4.23L65.40 4.23L65.40 1.14L67.77 1.14L67.77 4.23L70.74 4.23L70.74 6.57L67.77 6.57L67.77 14.37L70.32 13.35L71.19 15.54L67.77 16.92L67.77 21.66Q67.77 22.80 66.97 23.58Q66.18 24.36 65.07 24.36L65.07 24.36L62.19 24.36L62.19 21.99ZM95.73 1.14L98.07 1.14L98.07 4.23L101.19 4.23L101.19 6.57L98.07 6.57L98.07 14.19L100.86 13.11L101.70 15.33L98.07 16.71L98.07 21.66Q98.07 22.80 97.29 23.58Q96.51 24.36 95.37 24.36L95.37 24.36L92.19 24.36L92.19 21.99L95.37 21.99Q95.73 21.99 95.73 21.66L95.73 21.66L95.73 17.61L92.46 18.87L91.62 16.65L95.73 15.09L95.73 6.57L92.19 6.57L92.19 4.23L95.73 4.23L95.73 1.14ZM101.82 24.36L100.92 22.17Q103.02 21.30 104.75 20.37Q106.47 19.44 107.91 18.48L107.91 18.48L102.81 15.21L104.07 13.23L109.95 16.98Q112.14 15.21 113.33 13.79Q114.51 12.36 114.84 11.85L114.84 11.85L114.84 11.64L102.84 11.64L102.84 9.30L108.81 9.30L108.81 5.94L101.97 5.94L101.97 3.60L108.81 3.60L108.81 1.14L111.18 1.14L111.18 3.60L118.02 3.60L118.02 5.94L111.18 5.94L111.18 9.30L114.84 9.30L114.84 8.82L117.21 8.82L117.21 12.51L117.06 12.78Q117.03 12.84 116.73 13.30Q116.43 13.77 115.83 14.50Q115.23 15.24 114.28 16.23Q113.34 17.22 112.05 18.30L112.05 18.30L118.50 22.41L117.24 24.39L110.07 19.86Q108.45 21 106.41 22.15Q104.37 23.31 101.82 24.36L101.82 24.36ZM133.71 5.37L133.71 1.32L136.08 1.32L136.08 5.37L142.14 5.37L139.80 2.37L141.66 0.90L144.75 4.86L144.09 5.37L147.78 5.37L147.78 7.71L136.08 7.71L136.08 24.27L133.71 24.27L133.71 7.71L131.28 7.71Q131.01 8.76 130.43 10.60Q129.84 12.45 128.93 14.71Q128.01 16.98 126.73 19.45Q125.46 21.93 123.78 24.21L123.78 24.21L121.89 22.80Q123.33 20.82 124.48 18.63Q125.64 16.44 126.50 14.38Q127.35 12.33 127.92 10.59Q128.49 8.85 128.82 7.71L128.82 7.71L122.04 7.71L122.04 5.37L133.71 5.37ZM145.50 23.94L138.84 9.27L141 8.31L147.63 22.95L145.50 23.94ZM170.79 4.11L170.79 24.45L168.42 24.45L168.42 1.77L177.78 1.77L177.78 6L174.78 11.07Q175.14 11.61 175.65 12.58Q176.16 13.56 176.64 14.91Q177.12 16.26 177.45 17.95Q177.78 19.65 177.78 21.63L177.78 21.63L177.78 22.83L171.48 22.83L171.48 20.46L175.38 20.46Q175.23 18.48 174.76 16.89Q174.30 15.30 173.79 14.19Q173.28 13.08 172.86 12.46Q172.44 11.85 172.44 11.85L172.44 11.85L171.93 11.22L175.41 5.34L175.41 4.11L170.79 4.11ZM166.56 14.13L166.56 21.45Q166.56 22.56 165.76 23.34Q164.97 24.12 163.86 24.12L163.86 24.12L152.88 24.12L152.88 14.79L164.19 14.79L164.19 14.13L166.56 14.13ZM155.25 17.16L155.25 21.78L163.86 21.78Q164.19 21.78 164.19 21.45L164.19 21.45L164.19 17.16L155.25 17.16ZM167.10 2.76L167.10 5.13L152.34 5.13L152.34 2.76L158.43 2.76L157.98 1.74L160.17 0.84L160.98 2.76L167.10 2.76ZM167.76 10.98L167.76 13.32L151.68 13.32L151.68 10.98L160.98 10.98Q161.64 9.93 162.16 8.98Q162.69 8.04 163.05 7.33Q163.41 6.63 163.62 6.20Q163.83 5.76 163.83 5.76L163.83 5.76L165.96 6.75Q165.96 6.78 165.79 7.13Q165.63 7.47 165.34 8.03Q165.06 8.58 164.66 9.34Q164.25 10.11 163.74 10.98L163.74 10.98L167.76 10.98ZM155.85 10.95L153.51 6.96L155.55 5.76L157.89 9.78L155.85 10.95Z" fill="#00598e"></path></g><g transform="translate(185,191.81999969482422)" class="logo-slug"><path d="" fill="#f44321"></path></g></g></svg>